<?xml version="1.0" standalone="no"?>
<!DOCTYPE svg PUBLIC "-//W3C//DTD SVG 20010904//EN"
 "http://www.w3.org/TR/2001/REC-SVG-20010904/DTD/svg10.dtd">
<svg version="1.0" xmlns="http://www.w3.org/2000/svg"
 width="882.000000pt" height="882.000000pt" viewBox="0 0 882.000000 882.000000"
 preserveAspectRatio="xMidYMid meet">

<g transform="translate(0.000000,882.000000) scale(0.100000,-0.100000)"
fill="#000000" stroke="none">
<path d="M4381 7008 c0 -1529 -5 -1409 54 -1253 13 33 44 114 69 180 26 66 60
156 77 200 17 44 41 107 54 140 13 33 49 128 80 210 112 296 260 678 280 723
14 31 16 32 80 32 36 0 65 -2 65 -5 0 -3 -7 -22 -16 -43 -20 -47 -107 -270
-149 -382 -55 -147 -164 -430 -215 -560 -27 -69 -71 -183 -98 -255 -159 -413
-261 -683 -269 -705 -5 -16 -10 33 -13 143 l-5 168 -104 -273 c-58 -150 -129
-336 -159 -413 -29 -77 -76 -198 -103 -270 -27 -71 -53 -133 -57 -137 -7 -7
-36 48 -93 177 -4 11 -58 144 -118 295 -164 414 -304 764 -387 970 -41 102
-96 239 -122 305 -26 66 -124 311 -217 545 l-171 425 -64 -1 c-50 -1 -64 -4
-62 -15 3 -15 129 -336 252 -639 43 -107 147 -366 231 -575 83 -209 176 -440
205 -514 30 -74 52 -136 50 -138 -2 -3 -41 7 -86 21 -183 58 -175 58 -1124 50
l-868 -7 6 -1381 c4 -760 9 -1418 12 -1464 l6 -82 841 5 c908 7 973 10 1124
61 202 67 354 163 513 323 196 197 320 419 391 698 13 51 26 93 29 93 3 0 23
-29 43 -63 l37 -64 0 -593 0 -593 63 104 c35 57 135 219 222 359 281 452 639
1029 812 1310 63 102 118 189 122 193 5 4 36 7 70 5 l62 -3 -52 -85 c-73 -119
-314 -507 -419 -675 -48 -77 -129 -207 -180 -290 -309 -499 -407 -657 -440
-710 -85 -135 -228 -372 -244 -402 -12 -24 -16 -59 -16 -135 l0 -103 23 40
c13 22 66 108 117 190 51 83 124 202 163 265 147 240 177 289 366 593 330 529
541 870 707 1139 l109 178 63 0 c37 0 62 -4 62 -11 0 -6 -13 -29 -29 -52 -15
-23 -46 -71 -68 -107 -58 -95 -421 -682 -526 -850 -49 -80 -125 -201 -167
-270 -43 -69 -141 -226 -218 -350 -76 -124 -194 -315 -262 -425 -146 -237
-296 -480 -319 -515 -15 -24 -16 -22 -21 74 l-5 100 -52 -85 c-69 -114 -69
-113 -3 -113 l55 -1 3 -648 2 -648 963 4 c917 4 967 5 1072 24 689 129 1214
466 1589 1021 190 282 325 639 378 1007 19 132 19 3738 0 3870 -78 540 -303
996 -672 1365 -322 323 -739 548 -1184 640 -220 46 -317 50 -1258 50 l-888 0
1 -1392z m1299 233 c0 -6 -214 -572 -255 -671 -7 -19 -27 -71 -44 -115 -17
-44 -73 -190 -125 -325 -52 -135 -142 -369 -200 -520 -58 -151 -135 -351 -172
-445 -112 -289 -299 -778 -316 -831 -9 -26 -7 -36 10 -60 11 -16 92 -141 180
-279 87 -137 187 -294 222 -349 l63 -98 -17 -32 c-9 -17 -24 -40 -32 -51 -15
-20 -15 -20 -32 2 -9 12 -43 64 -75 115 -32 51 -126 199 -209 328 -224 348
-248 388 -248 407 0 15 141 388 391 1033 26 69 64 167 83 218 20 50 51 131 70
180 19 48 91 236 161 417 134 351 274 716 357 930 28 72 54 135 59 140 9 12
129 18 129 6z m270 -5 c0 -8 -9 -36 -21 -63 -11 -26 -49 -122 -84 -213 -34
-91 -100 -262 -145 -380 -165 -430 -484 -1259 -542 -1410 -33 -85 -99 -258
-148 -385 -48 -126 -109 -283 -134 -348 -25 -65 -46 -123 -46 -129 0 -6 35
-66 78 -132 43 -67 101 -156 128 -199 27 -43 68 -107 92 -143 23 -36 42 -70
42 -75 0 -5 -13 -32 -29 -60 l-28 -50 -176 273 c-243 380 -247 386 -237 412
14 33 118 302 240 621 21 55 92 240 158 410 65 171 167 436 226 590 59 154
118 307 131 340 13 33 49 128 80 210 31 83 77 202 102 265 25 63 71 185 103
270 85 227 71 207 146 209 49 1 64 -2 64 -13z m-545 -13 c-4 -10 -29 -74 -55
-143 -27 -69 -76 -197 -110 -285 -34 -88 -92 -241 -130 -340 -38 -99 -95 -250
-128 -335 -282 -727 -530 -1372 -560 -1455 l-37 -100 -5 175 c-3 105 -8 162
-12 143 -4 -18 -36 -105 -72 -195 -35 -90 -83 -211 -106 -271 l-42 -107 90
-133 c148 -219 143 -209 140 -323 l-3 -98 -59 95 c-32 51 -86 137 -121 189
-115 175 -175 271 -175 278 0 4 23 66 51 137 28 72 54 141 59 155 4 14 37 99
73 190 35 91 89 230 118 309 l54 144 5 -167 5 -167 52 138 c50 135 213 559
423 1100 27 71 108 283 180 473 151 396 217 566 231 592 8 15 22 18 75 18 59
0 65 -2 59 -17z m-2210 -1947 c95 -18 197 -51 281 -94 l62 -31 36 -91 c20 -49
36 -95 36 -100 0 -5 -30 11 -67 37 -94 64 -214 119 -319 144 -100 25 -29 23
-993 21 l-604 -2 6 -352 c4 -194 8 -587 8 -873 1 -286 4 -672 6 -859 l6 -338
741 5 c611 4 752 8 806 20 202 47 342 127 495 281 225 228 340 502 362 865 l8
124 59 -94 c67 -107 68 -108 36 -269 -25 -129 -60 -233 -124 -365 -159 -325
-422 -553 -751 -651 -89 -27 -96 -27 -495 -35 -223 -4 -599 -8 -836 -8 l-432
-1 -6 998 c-3 548 -7 1149 -9 1334 l-2 337 100 3 c55 2 417 5 805 6 579 2 719
0 785 -12z m-76 -246 c232 -30 462 -184 612 -412 69 -105 153 -315 174 -433
46 -268 17 -516 -90 -742 -86 -182 -181 -302 -320 -406 -124 -92 -231 -137
-370 -156 -67 -9 -1341 -19 -1349 -10 -2 2 -6 489 -10 1081 l-7 1078 453 3
c249 1 536 3 638 5 102 1 223 -3 269 -8z m1261 -665 c0 -102 -3 -185 -7 -185
-12 0 -85 129 -81 143 6 22 83 227 86 227 1 0 2 -83 2 -185z m2146 -48 c2 -2
-35 -64 -82 -138 -47 -74 -154 -244 -237 -379 -83 -135 -236 -382 -340 -550
-104 -168 -244 -393 -310 -500 -66 -107 -136 -220 -155 -250 -18 -30 -114
-185 -212 -345 -98 -159 -199 -323 -225 -363 l-46 -72 -65 0 c-49 0 -63 3 -58
13 4 6 65 107 137 222 149 241 241 390 389 630 125 204 436 706 489 790 21 33
50 80 65 105 14 25 48 79 74 120 26 41 132 212 235 380 103 168 197 314 209
325 17 16 33 20 75 18 30 -1 55 -4 57 -6z m-269 -4 c-11 -20 -250 -410 -420
-683 -104 -168 -231 -372 -282 -455 -51 -82 -167 -269 -257 -415 -91 -146
-192 -310 -225 -365 -52 -87 -208 -338 -362 -584 -25 -40 -54 -79 -63 -85 -15
-11 -106 -12 -116 -2 -4 5 102 178 668 1091 65 105 182 294 260 420 79 127
171 275 205 330 34 55 153 247 265 428 l203 327 64 0 c35 0 62 -3 60 -7z
m-1713 -405 c33 -54 130 -204 214 -335 l153 -237 -17 -32 c-49 -90 -29 -108
-239 223 -104 164 -199 312 -211 328 -53 73 -64 109 -64 212 l0 98 51 -80 c28
-44 79 -124 113 -177z m38 -475 c105 -164 191 -306 190 -315 0 -9 -13 -35 -28
-58 l-28 -42 -18 24 c-10 13 -47 70 -84 128 -36 58 -95 150 -130 205 -104 161
-104 161 -104 271 0 54 3 95 6 92 3 -4 91 -140 196 -305z m1415 -713 c66 -102
156 -243 201 -315 45 -71 110 -174 144 -227 60 -93 244 -378 276 -425 l14 -23
-68 0 -69 1 -85 132 c-46 73 -116 182 -155 242 -74 115 -122 190 -232 365 -37
58 -115 180 -175 272 -59 92 -108 171 -108 176 0 4 14 30 31 57 l31 48 38 -59
c21 -32 91 -142 157 -244z m-155 -176 c295 -464 324 -509 451 -707 32 -48 57
-92 57 -97 0 -6 -28 -10 -62 -10 l-63 0 -131 208 c-72 114 -168 266 -214 337
-45 72 -110 173 -143 225 -33 52 -76 119 -95 148 -32 49 -34 55 -21 80 23 45
43 71 54 68 5 -1 80 -115 167 -252z m-112 -245 c102 -160 224 -353 272 -428
l87 -136 -57 -5 c-31 -3 -61 -4 -65 -2 -15 7 -487 745 -487 762 0 11 53 100
60 100 3 0 88 -131 190 -291z m-110 -248 c110 -172 199 -315 197 -317 -4 -4
-81 -8 -108 -5 -9 0 -59 67 -115 154 -54 83 -131 203 -171 265 -40 62 -73 120
-73 128 0 19 51 95 61 92 5 -2 99 -144 209 -317z"/>
<path d="M2036 4903 l-149 -4 8 -947 c4 -521 9 -950 11 -954 4 -7 970 -1 1135
6 188 9 323 71 464 211 125 125 205 267 257 459 20 71 23 106 23 276 0 157 -4
209 -18 265 -78 298 -245 521 -472 630 -131 63 -156 65 -658 63 -249 -1 -519
-4 -601 -5z m1092 -133 c116 -22 262 -120 349 -234 56 -74 134 -237 157 -326
54 -214 33 -474 -53 -665 -65 -142 -184 -281 -295 -346 -114 -66 -117 -66
-712 -74 l-541 -7 -6 308 c-4 170 -7 544 -7 832 l0 522 529 0 c297 0 550 -4
579 -10z"/>
<path d="M2518 4653 l-367 -3 -3 -38 c-2 -20 -1 -334 2 -697 l5 -660 380 -3
c450 -3 579 5 662 44 91 42 188 147 245 264 63 128 79 191 85 349 8 199 -23
341 -108 484 -109 183 -264 271 -463 265 -39 -2 -236 -4 -438 -5z m576 -137
c80 -24 151 -85 209 -181 70 -117 88 -184 94 -345 6 -164 -9 -249 -65 -365
-47 -96 -117 -177 -186 -213 l-51 -27 -407 -3 -408 -3 0 239 c0 131 -3 388 -7
570 l-6 331 39 3 c21 2 195 5 385 7 298 3 354 1 403 -13z"/>
<path d="M2990 7215 c0 -9 65 -176 143 -373 79 -196 296 -738 482 -1204 186
-467 341 -848 344 -848 3 0 20 34 37 75 l32 75 -39 102 c-22 57 -45 117 -53
133 -8 17 -193 478 -410 1025 -218 547 -400 1002 -405 1010 -5 10 -28 16 -70
18 -50 2 -61 0 -61 -13z"/>
<path d="M3260 7220 c0 -13 255 -654 707 -1780 65 -162 123 -296 128 -297 6 0
22 32 37 73 l28 74 -24 63 c-23 61 -112 284 -306 767 -54 135 -175 440 -270
678 l-172 432 -64 0 c-36 0 -64 -4 -64 -10z"/>
<path d="M3530 7220 c0 -6 15 -47 33 -93 19 -45 174 -434 347 -865 172 -431
316 -780 320 -775 4 4 19 42 34 84 l27 76 -46 119 c-26 65 -53 133 -60 149 -7
17 -79 197 -160 400 -81 204 -153 384 -160 400 -7 17 -56 139 -110 273 l-98
242 -63 0 c-37 0 -64 -4 -64 -10z"/>
<path d="M4334 2273 c-43 -71 -77 -126 -237 -384 -53 -86 -97 -161 -97 -167 0
-14 97 -11 121 4 8 5 35 43 60 84 25 41 80 131 123 200 l77 126 -3 103 -3 103
-41 -69z"/>
</g>
</svg>
