<?xml version="1.0" standalone="no"?>
<!DOCTYPE svg PUBLIC "-//W3C//DTD SVG 20010904//EN"
 "http://www.w3.org/TR/2001/REC-SVG-20010904/DTD/svg10.dtd">
<svg version="1.0" xmlns="http://www.w3.org/2000/svg"
 width="399.000000pt" height="399.000000pt" viewBox="0 0 399.000000 399.000000"
 preserveAspectRatio="xMidYMid meet">

<g transform="translate(0.000000,399.000000) scale(0.100000,-0.100000)"
fill="#000000" stroke="none">
<path d="M0 1995 l0 -1995 1995 0 1995 0 0 1995 0 1995 -1995 0 -1995 0 0
-1995z m1777 1017 l159 -398 -14 -42 c-8 -24 -16 -41 -19 -38 -8 8 -343 851
-343 864 0 7 12 12 29 12 29 0 30 -2 188 -398z m559 336 c-13 -35 -139 -364
-280 -731 -235 -611 -256 -671 -243 -690 7 -12 94 -147 191 -300 177 -277 178
-278 161 -303 -9 -14 -18 -24 -20 -22 -2 1 -49 74 -104 162 -55 87 -103 152
-105 145 -3 -8 -12 -39 -20 -70 -21 -75 -87 -204 -133 -259 -58 -71 -142 -139
-216 -176 -126 -64 -137 -65 -628 -71 l-446 -6 -6 348 c-4 192 -7 520 -7 731
l0 382 163 7 c89 4 299 5 467 3 249 -4 314 -7 355 -21 27 -9 50 -15 51 -14 2
1 -80 209 -182 462 -101 253 -184 463 -184 468 0 4 15 7 33 7 l32 0 264 -663
c145 -364 269 -670 276 -679 10 -15 40 56 189 445 98 254 217 562 264 685 l85
222 34 0 33 0 -24 -62z m152 45 c-3 -10 -128 -337 -278 -726 -149 -389 -270
-716 -267 -725 2 -10 68 -118 146 -240 78 -122 144 -228 147 -236 3 -8 0 -24
-6 -36 -10 -19 -14 -20 -25 -9 -19 21 -335 518 -335 528 0 9 548 1439 557
1454 2 4 18 7 35 7 24 0 29 -4 26 -17z m137 0 c-4 -10 -69 -180 -145 -378 -76
-198 -199 -519 -274 -713 -75 -194 -136 -355 -136 -357 0 -3 54 -89 121 -192
106 -165 119 -190 110 -210 -6 -13 -14 -23 -19 -23 -5 0 -70 96 -145 213
l-136 214 133 344 c73 189 199 518 281 732 l149 387 34 0 c29 0 33 -3 27 -17z
m135 8 c0 -5 -65 -180 -145 -388 -81 -208 -188 -488 -240 -623 -51 -135 -111
-290 -133 -346 l-39 -101 88 -138 c85 -134 87 -139 72 -162 -9 -13 -19 -20
-23 -16 -16 18 -200 310 -200 318 0 4 20 60 44 124 34 88 458 1193 507 1319 6
16 17 22 39 22 16 0 30 -4 30 -9z m-1386 -63 c14 -35 116 -290 227 -567 199
-498 201 -505 188 -543 -7 -21 -15 -38 -18 -38 -6 0 -96 221 -347 853 l-142
357 33 0 c31 0 34 -4 59 -62z m305 -421 l193 -483 -16 -39 c-9 -21 -18 -36
-21 -34 -3 3 -356 882 -412 1027 -4 8 6 12 29 12 l34 0 193 -483z m971 -973
c0 -4 -134 -223 -298 -488 -164 -264 -343 -554 -398 -643 -95 -156 -100 -162
-131 -163 -18 0 -33 2 -33 4 0 2 55 93 123 202 133 214 422 680 581 937 90
145 100 157 127 157 16 0 29 -3 29 -6z m101 -56 c-174 -283 -763 -1234 -766
-1236 -2 -2 -17 -2 -34 0 l-31 3 94 150 c105 168 387 624 581 938 125 202 129
207 161 207 l34 0 -39 -62z m166 55 c-6 -10 -393 -637 -729 -1180 -63 -102
-72 -113 -99 -113 -16 0 -29 3 -29 7 0 3 179 296 398 649 395 640 397 643 430
644 18 0 31 -3 29 -7z m133 2 c0 -2 -132 -217 -293 -477 -162 -260 -341 -549
-398 -643 -97 -158 -107 -170 -137 -173 -17 -2 -32 -1 -32 2 0 3 59 101 132
218 505 818 652 1055 660 1066 10 11 68 18 68 7z m-230 -845 c37 -58 115 -179
174 -270 l106 -165 -31 -3 c-20 -2 -35 2 -43 14 -7 9 -93 142 -190 295 l-178
279 17 26 17 27 30 -49 c17 -27 61 -96 98 -154z m-16 -182 c86 -136 156 -252
156 -257 0 -16 -46 -13 -60 4 -23 28 -300 468 -300 477 0 5 5 19 11 30 9 17
13 18 24 7 7 -8 83 -125 169 -261z m-109 -42 c70 -109 129 -204 132 -212 4
-10 -3 -14 -25 -14 -28 0 -38 12 -152 192 -112 177 -121 193 -109 215 7 13 16
22 20 21 4 -2 65 -92 134 -202z m-96 -58 c55 -87 101 -160 101 -164 0 -3 -14
-4 -32 -2 -28 3 -40 16 -118 138 -85 132 -87 136 -73 163 8 16 16 27 18 25 1
-1 48 -74 104 -160z"/>
<path d="M818 2433 l-277 -3 5 -658 c3 -361 7 -662 9 -668 4 -14 775 -7 853 7
123 24 277 134 359 257 46 70 99 208 108 284 7 52 4 62 -21 105 l-29 48 -7
-78 c-16 -178 -71 -300 -184 -414 -79 -80 -159 -125 -253 -143 -30 -6 -210
-10 -412 -10 l-359 0 0 605 0 605 378 0 c440 0 470 -5 581 -88 20 -15 32 -20
29 -11 -42 106 -38 102 -148 141 -64 23 -183 27 -632 21z"/>
<path d="M670 2041 c0 -146 3 -391 7 -543 l6 -278 211 1 c116 0 279 4 361 8
187 9 233 26 334 128 75 75 120 157 147 263 25 98 15 263 -21 355 -64 166
-167 273 -303 315 -63 20 -89 21 -404 19 l-338 -2 0 -266z m768 168 c146 -66
252 -252 252 -444 0 -182 -108 -373 -249 -442 l-56 -28 -322 -3 -323 -3 0 403
c0 222 -3 436 -6 475 l-6 73 283 2 c344 4 348 3 427 -33z"/>
<path d="M800 1764 l0 -415 283 3 c317 4 321 4 402 79 89 82 135 196 135 333
0 180 -82 331 -213 392 -51 23 -58 24 -329 24 l-278 0 0 -416z m587 333 c156
-85 219 -349 126 -525 -34 -64 -97 -127 -141 -140 -20 -6 -141 -13 -268 -15
l-231 -4 -8 343 c-4 188 -4 348 0 354 5 8 75 10 248 8 208 -3 247 -5 274 -21z"/>
<path d="M930 1765 l0 -285 200 0 c217 0 231 3 282 57 54 57 73 117 73 233 0
97 -2 110 -30 164 -19 37 -45 70 -69 88 l-39 28 -209 0 -208 0 0 -285z"/>
</g>
</svg>
